<?xml version="1.0" standalone="no"?>
<!DOCTYPE svg PUBLIC "-//W3C//DTD SVG 20010904//EN"
 "http://www.w3.org/TR/2001/REC-SVG-20010904/DTD/svg10.dtd">
<svg version="1.0" xmlns="http://www.w3.org/2000/svg"
 width="512.000000pt" height="512.000000pt" viewBox="0 0 512.000000 512.000000"
 preserveAspectRatio="xMidYMid meet">

<g transform="translate(0.000000,512.000000) scale(0.100000,-0.100000)"
fill="rgb(201, 232, 242)" stroke="none">
<path d="M2451 4983 c-97 -34 -107 -51 -457 -763 -260 -527 -327 -656 -346
-663 -13 -4 -336 -52 -718 -107 -382 -55 -711 -105 -732 -110 -51 -14 -117
-67 -150 -120 -54 -87 -56 -206 -5 -293 13 -21 259 -268 548 -549 404 -394
524 -516 522 -533 -1 -12 -56 -343 -124 -735 -114 -669 -121 -716 -110 -765
23 -102 104 -191 195 -216 22 -6 70 -9 106 -7 63 3 80 11 718 346 358 188 657
342 664 342 6 0 304 -154 661 -341 616 -323 654 -342 713 -347 36 -2 82 1 106
7 97 28 176 113 199 215 11 51 5 91 -111 773 -67 395 -123 725 -123 734 -1 9
225 237 523 527 583 568 584 569 584 685 -1 113 -60 209 -158 256 -56 28 -114
38 -761 131 -385 55 -710 103 -723 106 -20 4 -76 111 -347 659 -178 360 -335
670 -350 689 -15 20 -53 49 -88 66 -50 25 -72 30 -126 29 -36 0 -86 -8 -110
-16z"/>
</g>
</svg>
