<?xml version="1.0" standalone="no"?>
<!DOCTYPE svg PUBLIC "-//W3C//DTD SVG 20010904//EN"
 "http://www.w3.org/TR/2001/REC-SVG-20010904/DTD/svg10.dtd">
<svg version="1.0" xmlns="http://www.w3.org/2000/svg"
 width="512.000000pt" height="512.000000pt" viewBox="0 0 512.000000 512.000000"
 preserveAspectRatio="xMidYMid meet">

<g transform="translate(0.000000,512.000000) scale(0.100000,-0.100000)"
fill="rgb(27, 115, 144)" stroke="rgb(201, 232, 242)">
<path d="M2474 4975 c-166 -83 -345 -375 -704 -1150 -61 -132 -114 -243 -118
-247 -13 -13 -92 -25 -517 -78 -580 -72 -812 -122 -950 -205 -80 -48 -101 -69
-132 -132 -22 -46 -25 -63 -20 -113 13 -149 157 -340 432 -578 61 -52 228
-211 372 -354 l262 -260 -39 -201 c-104 -539 -142 -776 -160 -1002 -40 -496
112 -607 570 -418 199 83 463 219 932 483 l148 82 212 -120 c503 -283 757
-409 974 -482 223 -76 364 -57 431 57 40 69 53 142 53 300 1 227 -42 531 -149
1072 l-49 245 117 110 c834 794 1015 1028 932 1200 -78 160 -396 244 -1366
362 -121 14 -225 31 -231 38 -6 6 -55 108 -109 226 -270 592 -455 928 -594
1074 -108 113 -198 141 -297 91z m151 -89 c70 -29 113 -90 217 -305 55 -112
120 -249 145 -305 25 -56 67 -148 93 -206 70 -157 156 -326 192 -379 84 -122
192 -193 362 -236 115 -29 201 -42 694 -104 411 -52 482 -68 558 -126 55 -42
74 -80 74 -150 0 -156 -157 -347 -625 -760 -290 -257 -334 -297 -390 -365
l-46 -55 7 -100 c8 -141 35 -298 104 -610 94 -430 104 -491 104 -655 1 -135
-1 -148 -24 -194 -14 -28 -37 -58 -51 -69 -105 -76 -314 -12 -644 198 -44 28
-114 68 -155 89 -41 22 -164 88 -272 147 -335 184 -350 191 -403 179 -122 -27
-321 -125 -670 -331 -406 -238 -583 -315 -712 -307 -129 7 -174 69 -181 249
-4 115 10 233 53 424 24 103 131 702 156 863 6 41 8 85 4 100 -18 73 -161 225
-414 442 -260 222 -438 391 -521 495 -63 80 -112 178 -118 237 -11 118 84 223
233 256 95 22 231 41 395 57 480 46 589 62 757 111 142 41 223 84 256 133 31
47 100 191 152 316 243 589 345 787 466 900 78 73 135 90 204 61z"/>
<path d="M2065 3283 c-83 -44 -342 -258 -430 -355 -118 -131 -42 -115 145 31
190 148 350 307 334 332 -7 12 -14 11 -49 -8z"/>
<path d="M2601 3278 c-91 -47 -291 -220 -716 -619 -110 -103 -224 -207 -253
-230 -42 -35 -52 -48 -50 -69 3 -21 8 -25 32 -23 73 5 246 147 711 583 116
108 245 228 288 265 58 50 77 74 75 89 -4 29 -35 30 -87 4z"/>
</g>
</svg>
